# xmcd CD database file
#
# Track frame offsets:
#	150
#	23825
#	51154
#	76011
#	97221
#	118188
#	134911
#	152755
#	177684
#	201671
#	224313
#
# Disc length: 3365 seconds
#
# Revision: 0
# Processed by: cddbd v1.5.2PL0 Copyright (c) Steve Scherf et al.
# Submitted via: CDex 1.51
#
DISCID=aa0d230b
DTITLE=Walter Lang Trio - Romantische Strabe
DYEAR=2007
DGENRE=Jazz
TTITLE0=Kein Schoner Land
TTITLE1=Mondschein Sonate
TTITLE2=My Romance
TTITLE3=Wasted On The Way
TTITLE4=Silver Shimmering Snowflakes
TTITLE5=September Song
TTITLE6=Guten Abend, Gute Nacht
TTITLE7=36th-10th
TTITLE8=Up On The Roof
TTITLE9=Pathetique
TTITLE10=E De Deus
EXTD=YEAR: 2007
EXTT0=
EXTT1=
EXTT2=
EXTT3=
EXTT4=
EXTT5=
EXTT6=
EXTT7=
EXTT8=
EXTT9=
EXTT10=
PLAYORDER=
